<svg width="3300" height="2200" xmlns="http://www.w3.org/2000/svg" xmlns:xlink="http://www.w3.org/1999/xlink" xml:space="preserve" overflow="hidden"><defs><clipPath id="clip0"><rect x="550" y="174" width="3300" height="2200"/></clipPath></defs><g clip-path="url(#clip0)" transform="translate(-550 -174)"><g><path d="M2200 361.93C2703.62 361.93 3111.89 770.199 3111.89 1273.82 3111.89 1286.48 3111.63 1299.13 3111.1 1311.77L2655.55 1292.8C2666.03 1041.2 2470.57 828.749 2218.97 818.271 2212.65 818.008 2206.33 817.876 2200 817.876Z" stroke="#FFFFFF" stroke-width="6.875" stroke-linejoin="round" stroke-miterlimit="10" fill="#66A498" fill-rule="evenodd"/></g><g><path d="M3111.1 1311.77C3094.34 1714.32 2815.39 2058.16 2424.94 2157.54L2312.47 1715.68C2507.69 1665.99 2647.17 1494.07 2655.55 1292.8Z" stroke="#FFFFFF" stroke-width="6.875" stroke-linejoin="round" stroke-miterlimit="10" fill="#006853" fill-rule="evenodd"/></g><g><path d="M2424.94 2157.54C2089.45 2242.93 1734.53 2130.99 1508.75 1868.57L1854.37 1571.2C1967.27 1702.41 2144.72 1758.38 2312.47 1715.68Z" stroke="#FFFFFF" stroke-width="6.875" stroke-linejoin="round" stroke-miterlimit="10" fill="#F2CFB9" fill-rule="evenodd"/></g><g><path d="M1508.75 1868.57C1301.56 1627.77 1234.62 1296.5 1332.06 994.139L1766.03 1133.98C1717.31 1285.16 1750.78 1450.8 1854.37 1571.2Z" stroke="#FFFFFF" stroke-width="6.875" stroke-linejoin="round" stroke-miterlimit="10" fill="#DB7F44" fill-rule="evenodd"/></g><g><path d="M1332.06 994.139C1400.08 783.047 1542.7 603.98 1733.22 490.455L1966.61 882.14C1871.35 938.903 1800.04 1028.44 1766.03 1133.98Z" stroke="#FFFFFF" stroke-width="6.875" stroke-linejoin="round" stroke-miterlimit="10" fill="#C99212" fill-rule="evenodd"/></g><g><path d="M1733.22 490.455C1805.12 447.611 1882.58 414.87 1963.41 393.155L2081.71 833.49C2041.29 844.348 2002.56 860.718 1966.61 882.14Z" stroke="#FFFFFF" stroke-width="6.875" stroke-linejoin="round" stroke-miterlimit="10" fill="#DFBE71" fill-rule="evenodd"/></g><g><path d="M1963.41 393.154C2040.57 372.427 2120.11 361.929 2200 361.929L2200 817.877C2160.06 817.877 2120.28 823.126 2081.71 833.49Z" stroke="#FFFFFF" stroke-width="6.875" stroke-linejoin="round" stroke-miterlimit="10" fill="#003E32" fill-rule="evenodd"/></g><g><path d="M1933.5 643.5 1694.56 383.5 1674.5 383.5" stroke="#323437" stroke-width="3.4375" stroke-linejoin="round" stroke-miterlimit="10" fill="none"/></g><g><path d="M2110.5 595.5 1971.56 263.5 1951.5 263.5" stroke="#323437" stroke-width="3.4375" stroke-linejoin="round" stroke-miterlimit="10" fill="none"/></g><g><text fill="#FFFFFF" font-family="Arial,Arial_MSFontService,sans-serif" font-weight="400" font-size="73" transform="matrix(1 0 0 1 2416.73 841)">Transport</text></g><g><text fill="#FFFFFF" font-family="Arial,Arial_MSFontService,sans-serif" font-weight="400" font-size="73" transform="matrix(1 0 0 1 2727.87 841)">, </text></g><g><text fill="#FFFFFF" font-family="Arial,Arial_MSFontService,sans-serif" font-weight="400" font-size="73" transform="matrix(1 0 0 1 2768.62 841)">26%</text></g><g><g><text fill="#FFFFFF" font-family="Arial,Arial_MSFontService,sans-serif" font-weight="400" font-size="73" transform="matrix(1 0 0 1 2614.93 1647)">Energy </text></g></g><g><text fill="#FFFFFF" font-family="Arial,Arial_MSFontService,sans-serif" font-weight="400" font-size="73" transform="matrix(1 0 0 1 2611.53 1731)">Supply</text></g><g><text fill="#FFFFFF" font-family="Arial,Arial_MSFontService,sans-serif" font-weight="400" font-size="73" transform="matrix(1 0 0 1 2830.32 1731)">, </text></g><g><g><text fill="#FFFFFF" font-family="Arial,Arial_MSFontService,sans-serif" font-weight="400" font-size="73" transform="matrix(1 0 0 1 2657.71 1815)">20%</text></g></g><g><text font-family="Arial,Arial_MSFontService,sans-serif" font-weight="400" font-size="73" transform="matrix(1 0 0 1 1751.73 1953)">Business</text></g><g><text font-family="Arial,Arial_MSFontService,sans-serif" font-weight="400" font-size="73" transform="matrix(1 0 0 1 2049.3 1953)">, </text></g><g><text font-family="Arial,Arial_MSFontService,sans-serif" font-weight="400" font-size="73" transform="matrix(1 0 0 1 2090.05 1953)">18%</text></g><g><text fill="#FFFFFF" font-family="Arial,Arial_MSFontService,sans-serif" font-weight="400" font-size="73" transform="matrix(1 0 0 1 1338.02 1394)">Residential</text></g><g><text fill="#FFFFFF" font-family="Arial,Arial_MSFontService,sans-serif" font-weight="400" font-size="73" transform="matrix(1 0 0 1 1700.86 1394)">, </text></g><g><g><text fill="#FFFFFF" font-family="Arial,Arial_MSFontService,sans-serif" font-weight="400" font-size="73" transform="matrix(1 0 0 1 1456.23 1478)">16%</text></g></g><g><text fill="#FFFFFF" font-family="Arial,Arial_MSFontService,sans-serif" font-weight="400" font-size="73" transform="matrix(1 0 0 1 1468.86 823)">Agriculture &amp; </text></g><g><text fill="#FFFFFF" font-family="Arial,Arial_MSFontService,sans-serif" font-weight="400" font-size="73" transform="matrix(1 0 0 1 1511.69 907)">LULUCF*</text></g><g><text fill="#FFFFFF" font-family="Arial,Arial_MSFontService,sans-serif" font-weight="400" font-size="73" transform="matrix(1 0 0 1 1825.49 907)">, </text></g><g><g><text fill="#FFFFFF" font-family="Arial,Arial_MSFontService,sans-serif" font-weight="400" font-size="73" transform="matrix(1 0 0 1 1608.1 991)">11%</text></g></g><g><text font-family="Arial,Arial_MSFontService,sans-serif" font-weight="400" font-size="73" transform="matrix(1 0 0 1 1308.64 410)">Waste</text></g><g><text font-family="Arial,Arial_MSFontService,sans-serif" font-weight="400" font-size="73" transform="matrix(1 0 0 1 1513.74 410)">, </text></g><g><text font-family="Arial,Arial_MSFontService,sans-serif" font-weight="400" font-size="73" transform="matrix(1 0 0 1 1554.49 410)">4%</text></g><g><text font-family="Arial,Arial_MSFontService,sans-serif" font-weight="400" font-size="73" transform="matrix(1 0 0 1 1550.23 291)">Other**</text></g><g><text font-family="Arial,Arial_MSFontService,sans-serif" font-weight="400" font-size="73" transform="matrix(1 0 0 1 1790.72 291)">, </text></g><g><text font-family="Arial,Arial_MSFontService,sans-serif" font-weight="400" font-size="73" transform="matrix(1 0 0 1 1831.47 291)">4%</text></g><text font-family="Arial,Arial_MSFontService,sans-serif" font-weight="400" font-size="83" transform="matrix(1 0 0 1 1819.58 1203)">Total Domestic GHG </text><text font-family="Arial,Arial_MSFontService,sans-serif" font-weight="400" font-size="83" transform="matrix(1 0 0 1 1853.96 1302)">Emissions in </text><text font-family="Arial,Arial_MSFontService,sans-serif" font-weight="400" font-size="83" transform="matrix(1 0 0 1 2339.79 1302)">2021:</text><text font-family="Arial,Arial_MSFontService,sans-serif" font-weight="400" font-size="83" transform="matrix(1 0 0 1 1931.87 1401)">426.5 </text><text font-family="Arial,Arial_MSFontService,sans-serif" font-weight="400" font-size="83" transform="matrix(1 0 0 1 2161.04 1401)">MtCO2e</text></g></svg>